<svg width="375" height="375" viewBox="0 0 375 375" fill="none" xmlns="http://www.w3.org/2000/svg">
<path d="M187.5 -0.000488281C229.114 -0.000487785 269.545 13.843 302.425 39.3494C335.305 64.8558 358.766 100.576 369.113 140.883C379.459 181.19 376.102 223.793 359.571 261.982C343.041 300.172 314.275 331.777 277.806 351.819L234.94 273.821C254.098 263.292 269.21 246.689 277.894 226.627C286.578 206.565 288.341 184.185 282.906 163.01C277.471 141.836 265.146 123.072 247.873 109.672C230.6 96.2732 209.361 89.0008 187.5 89.0008L187.5 -0.000488281Z" fill="#BEF3C0"/>
<path d="M277.822 351.811C245.324 369.675 208.259 377.501 171.313 374.3C134.368 371.098 99.2013 357.013 70.2608 333.825C41.3203 310.637 19.9057 279.389 8.72493 244.03C-2.45579 208.672 -2.90046 170.792 7.44716 135.181L92.9135 160.015C87.4776 178.723 87.7112 198.622 93.5848 217.197C99.4583 235.771 110.708 252.187 125.911 264.368C141.114 276.549 159.588 283.949 178.997 285.63C198.405 287.312 217.877 283.201 234.948 273.817L277.822 351.811Z" fill="#AC94F1"/>
<path d="M7.33821 135.557C17.2778 101.082 36.9003 70.1822 63.8768 46.5259L122.557 113.442C108.386 125.87 98.0778 142.102 92.8563 160.213L7.33821 135.557Z" fill="#FFF0CA"/>
<path d="M62.9118 47.3781C88.673 24.4726 120.25 9.11225 154.173 2.98511L169.992 90.5693C152.172 93.788 135.584 101.857 122.051 113.89L62.9118 47.3781Z" fill="#F9CF64"/>
<path d="M153.259 3.15259C165.951 0.795087 178.853 -0.245333 191.759 0.0478844L189.737 89.0263C182.957 88.8722 176.18 89.4188 169.512 90.6572L153.259 3.15259Z" fill="#F38FBF"/>
</svg>
